<svg width="80" height="80" xmlns="http://www.w3.org/2000/svg">
  <!-- Hexagons -->
  <path d="M20,0 L40,10 L40,30 L20,40 L0,30 L0,10 Z" fill="none" stroke="currentColor" stroke-width="1" />
  <path d="M60,0 L80,10 L80,30 L60,40 L40,30 L40,10 Z" fill="none" stroke="currentColor" stroke-width="1" />
  <path d="M20,40 L40,50 L40,70 L20,80 L0,70 L0,50 Z" fill="none" stroke="currentColor" stroke-width="1" />
  <path d="M60,40 L80,50 L80,70 L60,80 L40,70 L40,50 Z" fill="none" stroke="currentColor" stroke-width="1" />
  
  <!-- Circles -->
  <circle cx="20" cy="20" r="5" fill="none" stroke="currentColor" stroke-width="1" />
  <circle cx="60" cy="20" r="5" fill="none" stroke="currentColor" stroke-width="1" />
  <circle cx="20" cy="60" r="5" fill="none" stroke="currentColor" stroke-width="1" />
  <circle cx="60" cy="60" r="5" fill="none" stroke="currentColor" stroke-width="1" />
  
  <!-- Triangles -->
  <path d="M15,15 L25,15 L20,7 Z" fill="none" stroke="currentColor" stroke-width="1" />
  <path d="M55,15 L65,15 L60,7 Z" fill="none" stroke="currentColor" stroke-width="1" />
  <path d="M15,55 L25,55 L20,47 Z" fill="none" stroke="currentColor" stroke-width="1" />
  <path d="M55,55 L65,55 L60,47 Z" fill="none" stroke="currentColor" stroke-width="1" />
</svg> 