<svg xmlns="http://www.w3.org/2000/svg" viewBox="0 0 24 24">
  <radialGradient id="instagram-gradient" cx="19.38" cy="42.035" r="44.899" gradientUnits="userSpaceOnUse">
    <stop offset="0" stop-color="#fd5"/>
    <stop offset=".1" stop-color="#fd5"/>
    <stop offset=".5" stop-color="#ff543e"/>
    <stop offset="1" stop-color="#c837ab"/>
  </radialGradient>
  <path fill="url(#instagram-gradient)" d="M12,2.162c3.204,0,3.584,0.012,4.849,0.07c1.308,0.06,2.655,0.358,3.608,1.311c0.962,0.962,1.251,2.296,1.311,3.608 c0.058,1.265,0.07,1.645,0.07,4.849c0,3.204-0.012,3.584-0.07,4.849c-0.059,1.301-0.364,2.661-1.311,3.608 c-0.962,0.962-2.295,1.251-3.608,1.311c-1.265,0.058-1.645,0.07-4.849,0.07s-3.584-0.012-4.849-0.07 c-1.291-0.059-2.669-0.371-3.608-1.311c-0.957-0.957-1.251-2.304-1.311-3.608c-0.058-1.265-0.07-1.645-0.07-4.849 c0-3.204,0.012-3.584,0.07-4.849c0.059-1.296,0.367-2.664,1.311-3.608c0.96-0.96,2.299-1.251,3.608-1.311 C8.416,2.174,8.796,2.162,12,2.162 M12,0C8.741,0,8.332,0.014,7.052,0.072C5.197,0.157,3.355,0.673,2.014,2.014 C0.668,3.36,0.157,5.198,0.072,7.052C0.014,8.332,0,8.741,0,12c0,3.259,0.014,3.668,0.072,4.948c0.085,1.853,0.603,3.7,2.014,5.034 c1.359,1.359,3.198,1.93,5.034,2.015C8.332,23.986,8.741,24,12,24s3.668-0.014,4.948-0.072c1.854-0.085,3.698-0.602,5.034-2.015 c1.359-1.359,1.93-3.199,2.015-5.034C23.986,15.668,24,15.259,24,12s-0.014-3.668-0.072-4.948 c-0.085-1.855-0.602-3.698-2.015-5.034C20.667,0.673,18.854,0.156,17,0.072C15.668,0.014,15.259,0,12,0z"/>
  <path fill="url(#instagram-gradient)" d="M12,5.838c-3.403,0-6.162,2.759-6.162,6.162c0,3.403,2.759,6.162,6.162,6.162 s6.162-2.759,6.162-6.162C18.162,8.597,15.403,5.838,12,5.838z M12,16c-2.209,0-4-1.791-4-4s1.791-4,4-4s4,1.791,4,4 S14.209,16,12,16z"/>
  <circle fill="url(#instagram-gradient)" cx="18.406" cy="5.594" r="1.44"/>
</svg> 