<?xml version="1.0" encoding="UTF-8"?>
<svg viewBox="0 0 168 168" xmlns="http://www.w3.org/2000/svg" role="img" aria-label="Spotify">
  <defs>
    <style>
      .fill-spotify{fill:#1DB954}
      .fill-white{fill:#fff}
    </style>
  </defs>
  <circle class="fill-spotify" cx="84" cy="84" r="84"/>
  <!-- 3 arcs (logo without text), proportions aligned to official asset -->
  <path class="fill-white" d="M119.1 113.5a5.5 5.5 0 0 1-7.5 1.9c-20.6-5.8-37.2-6.8-61.3.2a5.5 5.5 0 1 1-3.2-10.6c26.3-7.9 44.6-6.5 67.2-.2a5.5 5.5 0 0 1 4.8 8.7Z"/>
  <path class="fill-white" d="M126.1 92.5a6.7 6.7 0 0 1-9.2 2.2c-22.7-13.4-51-15-77.2-6.1a6.7 6.7 0 1 1-4.2-12.8c29.2-9.7 60.7-7.8 86.0 7.0a6.7 6.7 0 0 1 4.6 9.7Z"/>
  <path class="fill-white" d="M128.9 70.2a8 8 0 0 1-11.0 2.8c-24.9-14.8-62.5-16.1-87.9-6.5a8 8 0 1 1-5.2-15.3c29.1-10.1 70.4-8.5 98.7 7.9a8 8 0 0 1 5.4 11.1Z"/>
</svg>
