<svg xmlns="http://www.w3.org/2000/svg" viewBox="0 0 24 24" fill="#229ED9">
  <path d="M19.44,3.073c0.222-0.001,0.444,0.045,0.651,0.134c0.736,0.303,1.043,0.986,0.963,2.049 c-0.088,1.162-0.477,3.91-1.165,8.241c-0.401,2.666-1.175,5.368-2.307,8.108c-0.309,0.753-0.819,1.17-1.53,1.253 c-0.705,0.061-1.323-0.25-1.848-0.94c-1.144-1.521-2.387-3.061-3.478-4.578c-0.316-0.44-0.296-0.836,0.095-1.145 c0.978-0.775,1.955-1.55,2.869-2.35c0.262-0.223,0.508-0.487,0.524-0.824c0.021-0.44-0.407-0.695-0.844-0.518 c-0.31,0.151-0.599,0.326-0.867,0.526c-1.818,1.161-3.637,2.32-5.454,3.485c-0.574,0.367-1.148,0.384-1.757,0.116 c-0.576-0.241-1.142-0.497-1.683-0.802c-0.57-0.314-0.939-0.78-0.786-1.471c0.131-0.584,0.656-0.958,1.328-1.19 c3.257-1.148,6.516-2.293,9.773-3.443c2.134-0.753,4.27-1.507,6.418-2.22C17.94,3.306,18.712,3.078,19.44,3.073z"/>
</svg> 