<?xml version="1.0" encoding="UTF-8"?>
<!-- Simple YouTube logo icon -->
<svg xmlns="http://www.w3.org/2000/svg" width="24" height="24" viewBox="0 0 24 24" fill="none" aria-hidden="true" focusable="false">
  <title>YouTube</title>
  <path d="M23.5 6.5a4 4 0 0 0-2.8-2.8C18.8 3 12 3 12 3s-6.8 0-8.7.7A4 4 0 0 0 .5 6.5 41.2 41.2 0 0 0 0 12c0 1.8.1 3.7.5 5.5a4 4 0 0 0 2.8 2.8C5.2 21 12 21 12 21s6.8 0 8.7-.7a4 4 0 0 0 2.8-2.8c.4-1.8.5-3.7.5-5.5 0-1.8-.1-3.7-.5-5.5Z" fill="#FF0000"/>
  <path d="M9.75 8.5v7l6-3.5-6-3.5Z" fill="#FFFFFF"/>
</svg>
